<svg width="1144" height="290" viewBox="0 0 1144 290" fill="none" xmlns="http://www.w3.org/2000/svg">
<path d="M113.024 9.49581L216.38 44.9961L114 269.513L11.5991 44.9498L113.024 9.49581Z" stroke="#1672EC" stroke-width="17"/>
<path d="M18 45.5L116 84V253.5L18 45.5Z" fill="#1672EC"/>
<path d="M441.92 55.7L378.74 239H313.48L250.04 55.7H304.64L346.24 188.04L387.58 55.7H441.92ZM565.958 209.1H500.958L491.078 239H437.518L504.338 55.7H563.098L629.658 239H575.838L565.958 209.1ZM553.218 170.1L533.458 110.82L513.958 170.1H553.218ZM632.488 198.18C649.301 185.007 663.081 173.653 673.828 164.12C684.574 154.587 693.588 144.793 700.868 134.74C708.148 124.513 711.788 114.807 711.788 105.62C711.788 100.073 710.488 95.74 707.888 92.62C705.461 89.5 701.821 87.94 696.968 87.94C691.941 87.94 688.041 90.1067 685.268 94.44C682.494 98.6 681.194 104.753 681.368 112.9H631.968C632.488 97.4733 635.868 84.7333 642.108 74.68C648.348 64.4533 656.494 57 666.548 52.32C676.601 47.4667 687.781 45.04 700.088 45.04C721.408 45.04 737.268 50.3267 747.668 60.9C758.068 71.4733 763.268 85.1667 763.268 101.98C763.268 120.007 757.201 136.907 745.068 152.68C733.108 168.453 718.114 182.58 700.088 195.06H765.088V236.4H632.488V198.18ZM923.515 116.8C923.515 127.893 920.915 138.033 915.715 147.22C910.688 156.233 902.975 163.513 892.575 169.06C882.348 174.433 869.782 177.12 854.875 177.12H829.655V239H778.695V55.7H854.875C869.608 55.7 882.088 58.3 892.315 63.5C902.715 68.7 910.515 75.8933 915.715 85.08C920.915 94.2667 923.515 104.84 923.515 116.8ZM849.935 136.56C864.322 136.56 871.515 129.973 871.515 116.8C871.515 103.453 864.322 96.78 849.935 96.78H829.655V136.56H849.935ZM1074.25 55.7V96.26H1025.37V239H974.408V96.26H926.048V55.7H1074.25Z" fill="#1672EC"/>
</svg>
